# xmcd CD database file
# Copyright (C) 1993-1996 Ti Kan
#
# Track frame offsets:
#	150
#	15187
#	38022
#	58775
#	71327
#	84762
#	102117
#	120952
#
# Disc length: 1838 seconds
#
# Revision: 1
# Processed by: cddbd v1.4b41PL1 Copyright (c) Steve Scherf et al.
# Submitted via: CDValet v3.31 - Copyright (c) 1997 Greg Leichner
#
DISCID=4c072c08
DTITLE=Ruth Brown - All Ruth
DYEAR=1900
DGENRE=
TTITLE0=Sugar Baby
TTITLE1=Stop Knockin
TTITLE2=Old Fashioned Good Time Lovin  You
TTITLE3=I Love My Man
TTITLE4=My Old Bed
TTITLE5=Brown Sugar
TTITLE6=I Want To Sleep With You
TTITLE7=What Color Is Blue
EXTD=
EXTT0=
EXTT1=
EXTT2=
EXTT3=
EXTT4=
EXTT5=
EXTT6=
EXTT7=
PLAYORDER=
